<svg width="24" height="24" viewBox="0 0 24 24" fill="none" xmlns="http://www.w3.org/2000/svg">
<path fill-rule="evenodd" clip-rule="evenodd" d="M4.30025 13.9697C4.19509 13.9059 4.11595 13.8094 4.07607 13.6962C4.0492 13.6342 4.03536 13.5677 4.03536 13.5005C4.03536 13.4332 4.0492 13.3667 4.07607 13.3047L5.54319 10.8009C5.72348 10.4461 5.9886 10.1372 6.31689 9.89957C6.61816 9.67949 6.94669 9.49615 7.29497 9.35376C6.95495 9.1928 6.67045 8.94113 6.47553 8.62887C6.28061 8.31661 6.18354 7.95701 6.19593 7.59313C6.19663 7.0606 6.41443 6.54951 6.80266 6.16932C7.1909 5.78913 7.71871 5.57008 8.27305 5.55909C8.53701 5.55724 8.79845 5.6085 9.04054 5.70958C9.28263 5.81066 9.5 5.95931 9.67864 6.14597C9.87244 6.33725 10.0245 6.56381 10.1258 6.81232C10.2272 7.06084 10.2758 7.32631 10.2688 7.59313C10.2739 7.96893 10.1601 8.33735 9.94245 8.64971C9.74803 8.94057 9.48238 9.18127 9.16874 9.35075L9.45445 9.38981C9.69907 9.48421 9.92591 9.6165 10.126 9.7814C10.3486 9.95514 10.5354 10.1675 10.6765 10.4073L12.2239 13.3417C12.2638 13.4135 12.2863 13.4931 12.2898 13.5744C12.2932 13.6557 12.2775 13.7367 12.2437 13.8114C12.2143 13.8854 12.1607 13.9482 12.0909 13.9904C12.0212 14.0327 11.9391 14.0521 11.8569 14.0458H10.6765C10.5833 14.0416 10.4929 14.0141 10.4142 13.966C10.3356 13.9178 10.2714 13.8507 10.2282 13.7714L10.1468 13.6542C10.1391 13.7624 10.0881 13.8635 10.0045 13.9365C9.92099 14.0095 9.81133 14.0486 9.69845 14.0458H6.56506C6.48503 14.0331 6.40958 14.0013 6.34564 13.9534C6.28169 13.9054 6.2313 13.8428 6.19906 13.7714C6.07851 13.9194 5.90354 14.0176 5.71003 14.0458H4.56928C4.47416 14.0438 4.38131 14.0175 4.30025 13.9697ZM7.55877 8.39533C7.76088 8.58341 8.03125 8.68858 8.31266 8.68858C8.59408 8.68858 8.86445 8.58341 9.06655 8.39533C9.16842 8.29531 9.24659 8.17535 9.29573 8.04364C9.34486 7.91192 9.36379 7.77157 9.35122 7.63219C9.35091 7.49194 9.31993 7.35333 9.26029 7.22532C9.20066 7.09731 9.11369 6.98276 9.00504 6.88907C8.79808 6.71075 8.52917 6.61322 8.25115 6.61567C8.11511 6.61437 7.98022 6.63972 7.85472 6.69018C7.72923 6.74063 7.61576 6.81512 7.52124 6.9091C7.41895 7.00966 7.3391 7.12921 7.28657 7.26042C7.23403 7.39164 7.20993 7.53177 7.21572 7.67224C7.23578 7.94506 7.35758 8.20179 7.55877 8.39533ZM7.13126 10.5275C6.88149 10.6897 6.67271 10.9036 6.52022 11.1534H6.84659C6.96499 11.1548 7.07814 11.2006 7.16177 11.2811C7.2454 11.3616 7.29284 11.4704 7.29392 11.5841V13.3077H9.37207V11.5831C9.36805 11.4866 9.39797 11.3917 9.45699 11.3136C9.51601 11.2355 9.6007 11.1787 9.69741 11.1524C9.77016 11.1414 9.84459 11.1461 9.91516 11.1664C9.98574 11.1867 10.0507 11.222 10.1051 11.2696L9.89657 10.9171C9.74285 10.6838 9.51401 10.5052 9.24487 10.4083C8.89733 10.3337 8.54259 10.2945 8.1865 10.2912H7.94146C7.65289 10.2895 7.37051 10.3715 7.13126 10.5265V10.5275ZM15.9496 8.3753C16.0745 8.24733 16.2263 8.14626 16.3949 8.07876C16.5635 8.01126 16.7451 7.97887 16.9277 7.98371C17.2891 7.97237 17.6405 8.09915 17.9047 8.33624C18.0345 8.45774 18.1361 8.60426 18.2028 8.76617C18.2695 8.92808 18.2997 9.10171 18.2916 9.27564C18.2997 9.44958 18.2695 9.6232 18.2028 9.78511C18.1361 9.94702 18.0345 10.0935 17.9047 10.215C17.6339 10.442 17.2866 10.5671 16.9272 10.5671C16.5677 10.5671 16.2204 10.442 15.9496 10.215C15.8197 10.0938 15.718 9.94748 15.6513 9.78571C15.5846 9.62395 15.5544 9.45044 15.5627 9.27664C15.5621 9.10931 15.5959 8.9435 15.6623 8.7888C15.7287 8.63409 15.8263 8.49355 15.9496 8.3753ZM16.8661 9.00123C16.8239 8.99788 16.7814 9.00297 16.7413 9.01619C16.7012 9.02942 16.6644 9.05048 16.6332 9.07806C16.6021 9.10564 16.5772 9.13912 16.5601 9.17641C16.5431 9.21369 16.5343 9.25396 16.5343 9.29467C16.5343 9.33538 16.5431 9.37565 16.5601 9.41293C16.5772 9.45022 16.6021 9.4837 16.6332 9.51128C16.6644 9.53885 16.7012 9.55992 16.7413 9.57314C16.7814 9.58637 16.8239 9.59146 16.8661 9.58811C16.9104 9.59408 16.9554 9.59012 16.9978 9.57655C17.0401 9.56297 17.0787 9.54015 17.1103 9.50987C17.1419 9.47959 17.1658 9.44268 17.1801 9.40204C17.1943 9.3614 17.1986 9.31813 17.1925 9.27564C17.1955 9.23539 17.1887 9.19502 17.1727 9.15771C17.1567 9.1204 17.1319 9.08715 17.1003 9.06057C17.0687 9.03399 17.0311 9.0148 16.9905 9.00451C16.9499 8.99421 16.9073 8.99309 16.8661 9.00123ZM12.3657 8.30018C12.1983 8.14692 12.0663 7.96149 11.9785 7.75597C11.8906 7.55046 11.8488 7.32946 11.8559 7.1074C11.8501 6.88251 11.8923 6.65887 11.98 6.45028C12.0677 6.24169 12.199 6.05257 12.3657 5.89459C12.6972 5.58204 13.1431 5.40692 13.6076 5.40692C14.0721 5.40692 14.5181 5.58204 14.8495 5.89459C15.0163 6.05257 15.1475 6.24169 15.2352 6.45028C15.3229 6.65887 15.3652 6.88251 15.3594 7.1074C15.3664 7.32946 15.3246 7.55046 15.2368 7.75597C15.1489 7.96149 15.017 8.14692 14.8495 8.30018C14.5123 8.60198 14.0685 8.76979 13.6076 8.76979C13.1467 8.76979 12.7029 8.60198 12.3657 8.30018ZM13.0581 6.55958C12.9837 6.63131 12.9254 6.71694 12.8869 6.81117C12.8483 6.90539 12.8303 7.00622 12.8339 7.1074C12.8289 7.20576 12.8464 7.30396 12.8852 7.39514C12.9239 7.48631 12.9829 7.56825 13.0581 7.63519C13.2141 7.77027 13.4185 7.84206 13.6285 7.83549C13.7294 7.84286 13.8308 7.82917 13.9257 7.79537C14.0206 7.76158 14.1067 7.70847 14.1782 7.63969C14.2497 7.5709 14.3049 7.48808 14.34 7.3969C14.375 7.30571 14.3891 7.20832 14.3813 7.11141C14.3847 7.01025 14.3666 6.9095 14.328 6.8153C14.2895 6.72111 14.2313 6.63546 14.1571 6.56359C14.0112 6.42477 13.8145 6.34631 13.6091 6.345C13.4037 6.34369 13.206 6.41963 13.0581 6.55658V6.55958ZM15.8276 6.10991C15.5948 5.8843 15.4132 5.6149 15.294 5.31864C15.1749 5.02237 15.1208 4.70564 15.1352 4.38834C15.133 4.07221 15.1964 3.75881 15.3217 3.46648C15.447 3.17415 15.6318 2.90875 15.8651 2.6858C16.0962 2.46138 16.3727 2.28481 16.6776 2.16699C16.9825 2.04918 17.3092 1.99261 17.6378 2.00077C17.9691 1.99397 18.2984 2.05109 18.6063 2.16876C18.9142 2.28643 19.1944 2.46224 19.4302 2.6858C19.6686 2.90515 19.8566 3.16989 19.9823 3.46306C20.108 3.75624 20.1685 4.07139 20.1601 4.38834C20.1674 4.70797 20.1064 5.02564 19.9808 5.32174C19.8553 5.61784 19.6679 5.88608 19.4302 6.10991C18.9568 6.57304 18.3134 6.83977 17.6378 6.85302C17.2996 6.84966 16.9655 6.7819 16.6547 6.65366C16.344 6.52541 16.0629 6.33924 15.8276 6.10591V6.10991ZM16.5815 3.44994C16.4449 3.58389 16.3383 3.74325 16.2681 3.91823C16.198 4.09321 16.1659 4.28012 16.1738 4.46746C16.1639 4.65488 16.1951 4.8422 16.2652 5.01733C16.3354 5.19247 16.4431 5.35152 16.5812 5.48421C16.7194 5.61691 16.885 5.7203 17.0673 5.78771C17.2497 5.85511 17.4447 5.88504 17.6398 5.87556C17.8377 5.88185 18.035 5.8505 18.2202 5.78329C18.4054 5.71609 18.5749 5.61436 18.7191 5.48398C18.8613 5.35308 18.973 5.19472 19.0469 5.01933C19.1208 4.84394 19.1551 4.65551 19.1476 4.46646C19.155 4.27741 19.1206 4.08902 19.0467 3.91365C18.9728 3.73829 18.8612 3.57991 18.7191 3.44894C18.4252 3.18511 18.0419 3.03217 17.6398 3.01829C17.2437 3.02829 16.8659 3.18093 16.5815 3.44593V3.44994ZM21.9578 19.2936C21.7951 20.2584 20.6273 20.9624 18.4542 21.4058C16.3272 21.8448 14.1538 22.0418 11.9789 21.9926C9.87769 22.0102 7.78048 21.8135 5.72253 21.4058C3.8352 21.0145 2.66109 20.4016 2.2002 19.567C2.15682 19.5348 2.123 19.4923 2.10214 19.4436C2.08128 19.3949 2.0741 19.3418 2.08134 19.2896L2 13.7734C2.00211 13.7434 2.01038 13.7142 2.02434 13.6874C2.03831 13.6606 2.05768 13.6367 2.08134 13.6171C2.07652 13.4979 2.12093 13.3816 2.2049 13.2937C2.28887 13.2057 2.4056 13.1531 2.52971 13.1474C2.67477 13.1656 2.81016 13.2273 2.91656 13.3237C2.96267 13.3669 2.99911 13.4186 3.02367 13.4758C3.04824 13.533 3.0604 13.5943 3.05942 13.6562C3.05942 14.0221 3.81956 14.4066 5.33985 14.8099C7.5175 15.288 9.74624 15.518 11.9799 15.4949C14.1904 15.5106 16.396 15.294 18.5575 14.849C20.0917 14.4711 20.8723 14.1372 20.8994 13.8475C20.791 13.5343 20.0645 13.1691 18.7201 12.7518C16.9233 12.2823 15.0612 12.0843 13.201 12.165C13.1365 12.1661 13.0726 12.1546 13.013 12.131C12.9534 12.1074 12.8996 12.0722 12.8548 12.0278C12.8102 11.9877 12.7747 11.9393 12.7503 11.8856C12.7259 11.8318 12.7132 11.7739 12.713 11.7153C12.7142 11.5945 12.7571 11.4776 12.835 11.3828C12.8718 11.3332 12.9207 11.293 12.9774 11.2658C13.0341 11.2385 13.0969 11.2251 13.1603 11.2266C15.1377 11.166 17.1138 11.3836 19.0256 11.8725C20.6558 12.3292 21.6064 12.9224 21.8775 13.6522C21.9189 13.6937 21.9511 13.743 21.9721 13.7969C21.9931 13.8507 22.0024 13.9082 21.9995 13.9656L21.9588 19.2856L21.9578 19.2936ZM20.9797 15.1875C19.7619 15.7487 18.4532 16.106 17.1101 16.244C15.3831 16.4819 13.6412 16.606 11.8965 16.6156C10.172 16.6335 8.44886 16.5156 6.74441 16.2631C5.41061 16.1129 4.1185 15.7214 2.93637 15.1094L2.97704 19.2956C3.00345 19.6608 3.77055 20.0454 5.27834 20.4493C7.4485 20.9279 9.67003 21.1578 11.8965 21.1344C14.1638 21.1613 16.4265 20.9314 18.6377 20.4493C20.1455 20.0447 20.8991 19.6602 20.8984 19.2956L20.9797 15.1875Z" fill="#77DADA"/>
</svg>
